<svg width="9" height="11" viewBox="0 0 9 11" fill="none" xmlns="http://www.w3.org/2000/svg">
<mask id="mask0_0_1" style="mask-type:luminance" maskUnits="userSpaceOnUse" x="0" y="0" width="8" height="9">
<path d="M0.824463 0.176563H7.12446V8.77656H0.824463V0.176563Z" fill="white"/>
</mask>
<g mask="url(#mask0_0_1)">
<path d="M7.03798 0.715628C6.89266 0.53542 6.72964 0.398962 6.5536 0.309378C6.38798 0.225003 6.21245 0.182816 6.026 0.182816C5.66818 0.182816 5.2812 0.34844 4.93693 0.648961C4.62339 0.922399 4.35933 1.29636 4.21193 1.67552C4.03902 2.05417 3.92964 2.45625 3.82443 2.84532C3.79943 2.93802 3.77339 3.03334 3.74683 3.12761L2.01089 2.87604L1.9286 3.49896L3.62183 3.75313L3.49162 4.52657C3.26193 4.49688 3.03225 4.46198 2.80933 4.42813C2.50725 4.38282 2.19527 4.33542 1.88537 4.30052L1.79839 4.29063L1.72235 4.90729L3.37808 5.15313C3.01141 7.1599 2.51037 8.40209 2.06558 8.40209C1.95412 8.40209 1.83537 8.32292 1.71193 8.16667C1.63693 8.00209 1.53329 7.82813 1.33381 7.76094C1.28745 7.74219 1.23902 7.73282 1.18954 7.73282C1.0562 7.73282 0.934329 7.8073 0.879121 7.92292C0.823912 8.03959 0.845267 8.17552 0.936412 8.28698L0.937975 8.28907C1.21193 8.60365 1.551 8.77032 1.9187 8.77032C2.27079 8.77032 2.65047 8.61511 2.98641 8.33334C3.301 8.0698 3.55412 7.72032 3.69995 7.34948C3.9286 6.83802 4.06402 6.2974 4.19475 5.77448C4.23433 5.61615 4.27547 5.45313 4.3187 5.29167L6.07652 5.54584L6.07964 5.4474C6.08277 5.38854 6.0911 5.33021 6.1036 5.2724C6.12131 5.17813 6.14006 5.08021 6.1187 4.97396L6.10673 4.91302L4.44735 4.66667L4.57756 3.89271L6.27079 4.13542L6.34527 3.51198L4.70725 3.26771C4.77183 2.63125 4.97183 1.97344 5.17964 1.35521C5.31975 0.969795 5.6536 0.557295 5.92808 0.557295C6.08173 0.557295 6.21402 0.689586 6.32079 0.950524L6.32391 0.957816L6.32808 0.964586C6.41141 1.0974 6.53016 1.18073 6.68381 1.21354C6.71193 1.22188 6.74058 1.22604 6.76975 1.22604C6.89475 1.22604 7.01662 1.14636 7.07339 1.02709C7.12391 0.920316 7.11089 0.803649 7.03798 0.715628Z" fill="#3168D8"/>
</g>
<path d="M7.44456 10.6016C7.03883 10.6016 6.71643 10.5172 6.47789 10.3474C6.24039 10.1766 6.08518 9.93856 6.01331 9.63283L6.62164 9.362L6.68622 9.3745C6.7456 9.55366 6.83414 9.68908 6.95081 9.78075C7.06851 9.87137 7.23049 9.91616 7.43622 9.91616C7.64716 9.91616 7.80966 9.85575 7.92372 9.73491C8.03883 9.61408 8.09664 9.43439 8.09664 9.19533C8.09664 8.95939 8.03935 8.78023 7.92581 8.65783C7.81174 8.53596 7.65706 8.4745 7.46122 8.4745C7.31122 8.4745 7.18466 8.50731 7.08206 8.57241C6.98049 8.63648 6.8956 8.73231 6.82789 8.85991L6.16331 8.812L6.24664 6.48075H8.66539V7.15575H6.92164L6.88414 8.19325L6.94247 8.20366C7.03674 8.08023 7.14924 7.98648 7.27997 7.92241C7.41174 7.85887 7.57008 7.82658 7.75497 7.82658C7.98674 7.82658 8.18935 7.87814 8.36331 7.98075C8.53674 8.08387 8.6706 8.23648 8.76539 8.43908C8.85966 8.64221 8.90706 8.89012 8.90706 9.18283C8.90706 9.48023 8.84924 9.73491 8.73414 9.94741C8.62008 10.1599 8.45393 10.3224 8.23622 10.4349C8.01799 10.5459 7.75393 10.6016 7.44456 10.6016Z" fill="#3068D8"/>
</svg>
